<svg id="visual" viewBox="0 0 960 540" width="960" height="540" xmlns="http://www.w3.org/2000/svg" xmlns:xlink="http://www.w3.org/1999/xlink" version="1.1"><rect x="0" y="0" width="960" height="540" fill="#000305"></rect><path d="M0 268L22.8 263C45.7 258 91.3 248 137 254.5C182.7 261 228.3 284 274 312.5C319.7 341 365.3 375 411.2 362.8C457 350.7 503 292.3 548.8 282C594.7 271.7 640.3 309.3 686 331.7C731.7 354 777.3 361 823 344.2C868.7 327.3 914.3 286.7 937.2 266.3L960 246L960 541L937.2 541C914.3 541 868.7 541 823 541C777.3 541 731.7 541 686 541C640.3 541 594.7 541 548.8 541C503 541 457 541 411.2 541C365.3 541 319.7 541 274 541C228.3 541 182.7 541 137 541C91.3 541 45.7 541 22.8 541L0 541Z" fill="#fa0098"></path><path d="M0 445L22.8 415.7C45.7 386.3 91.3 327.7 137 308.7C182.7 289.7 228.3 310.3 274 340C319.7 369.7 365.3 408.3 411.2 403.3C457 398.3 503 349.7 548.8 338.5C594.7 327.3 640.3 353.7 686 351.8C731.7 350 777.3 320 823 320.8C868.7 321.7 914.3 353.3 937.2 369.2L960 385L960 541L937.2 541C914.3 541 868.7 541 823 541C777.3 541 731.7 541 686 541C640.3 541 594.7 541 548.8 541C503 541 457 541 411.2 541C365.3 541 319.7 541 274 541C228.3 541 182.7 541 137 541C91.3 541 45.7 541 22.8 541L0 541Z" fill="#fd38b0"></path><path d="M0 317L22.8 330.5C45.7 344 91.3 371 137 375.3C182.7 379.7 228.3 361.3 274 372.8C319.7 384.3 365.3 425.7 411.2 433.3C457 441 503 415 548.8 408.8C594.7 402.7 640.3 416.3 686 418.7C731.7 421 777.3 412 823 417.5C868.7 423 914.3 443 937.2 453L960 463L960 541L937.2 541C914.3 541 868.7 541 823 541C777.3 541 731.7 541 686 541C640.3 541 594.7 541 548.8 541C503 541 457 541 411.2 541C365.3 541 319.7 541 274 541C228.3 541 182.7 541 137 541C91.3 541 45.7 541 22.8 541L0 541Z" fill="#ff54c8"></path><path d="M0 434L22.8 434.2C45.7 434.3 91.3 434.7 137 431C182.7 427.3 228.3 419.7 274 422.8C319.7 426 365.3 440 411.2 450.7C457 461.3 503 468.7 548.8 458.2C594.7 447.7 640.3 419.3 686 409.2C731.7 399 777.3 407 823 411C868.7 415 914.3 415 937.2 415L960 415L960 541L937.2 541C914.3 541 868.7 541 823 541C777.3 541 731.7 541 686 541C640.3 541 594.7 541 548.8 541C503 541 457 541 411.2 541C365.3 541 319.7 541 274 541C228.3 541 182.7 541 137 541C91.3 541 45.7 541 22.8 541L0 541Z" fill="#ff6bde"></path><path d="M0 432L22.8 441.8C45.7 451.7 91.3 471.3 137 473.7C182.7 476 228.3 461 274 453.5C319.7 446 365.3 446 411.2 450.2C457 454.3 503 462.7 548.8 471.5C594.7 480.3 640.3 489.7 686 485C731.7 480.3 777.3 461.7 823 452.8C868.7 444 914.3 445 937.2 445.5L960 446L960 541L937.2 541C914.3 541 868.7 541 823 541C777.3 541 731.7 541 686 541C640.3 541 594.7 541 548.8 541C503 541 457 541 411.2 541C365.3 541 319.7 541 274 541C228.3 541 182.7 541 137 541C91.3 541 45.7 541 22.8 541L0 541Z" fill="#ff80f3"></path></svg>